<?xml version="1.0" encoding="utf-8"?>
<!-- Generator: Adobe Illustrator 24.2.1, SVG Export Plug-In . SVG Version: 6.00 Build 0)  -->
<svg version="1.1" id="Layer_1" xmlns="http://www.w3.org/2000/svg" xmlns:xlink="http://www.w3.org/1999/xlink" x="0px" y="0px"
	 viewBox="0 0 269.9 52.2" style="enable-background:new 0 0 269.9 52.2;" xml:space="preserve">
<style type="text/css">
	.st0{fill:#4A8B2C;}
	.st1{fill:#58595B;}
</style>
<g>
	<path class="st0" d="M34.3,15.3c-1.7-0.9-3.4-1.2-5-0.9c-0.8-1.6-4.9-4.1-9.6-4.4c-0.8-0.1-0.9-0.7-0.9-0.9
		c0.1-1.2,1.4-3.7,5.9-2.8l0.7-1.9C19.1,3.6,17.1,6.6,17,9c-0.1,1.6,1,2.8,2.6,2.9c4.3,0.3,7.3,2.4,8,3.2c-0.8,0.4-1.6,0.9-2.3,1.6
		c-4.5,3.9-5.2,19.4-2.1,25.1c0.3,0.6,0.7,1.2,1.1,1.8l-0.1,0.1c-2.3,1-5.6,0.7-7.9-0.2c2.8-5.1,2.9-21.9-1.8-27.3
		c-0.4-0.5-1-0.8-1.7-1.1c1.4-0.9,5.5-2.3,11,1l0.7-1.7c-6.2-3.4-11.2-2.2-13.3-0.5c-0.2,0.2-0.4,0.4-0.6,0.7
		C8,14.3,5.1,14.7,4,15.5c-2.5,1.8-1.4,9.9-0.7,13.3c0.3,1.5,2.8,14.5,7.4,15.7c0.9,0.2,1.7,0.3,2.3,0.3c0.6,0,1.1-0.1,1.5-0.2
		c1.7,1,4,1.5,6.2,1.5c1.5,0,3-0.3,4.2-0.8c0.2-0.1,0.5-0.3,0.7-0.5c0.5,0.3,1.1,0.6,1.9,0.6c0.7,0,1.4-0.2,2.3-0.6
		c3.4-1.5,6.5-14.1,6.8-21.5C36.7,18.9,35.9,16.2,34.3,15.3z M14.5,42.5c-0.4-0.3-0.7-0.6-0.8-0.9c-3.5-6.4-4.9-20-2.4-25.1
		c0.7,0.2,1.3,0.4,1.6,0.8C17.3,22.4,16.8,38.5,14.5,42.5z M4.9,28.4c-1.3-7-0.8-10.9,0-11.4c0.7-0.5,2.7-0.8,4.5-0.7
		C6.7,22.7,8.6,36.1,12,42.5c0.1,0.2,0.2,0.3,0.3,0.4c-0.4,0-0.9-0.1-1.4-0.2C8.9,42.1,6.3,35.9,4.9,28.4z M26.4,18
		c0.6-0.5,1.2-0.9,1.8-1.2c1.8,7-0.4,20.5-2.8,25.2c-0.2-0.3-0.4-0.7-0.6-1.1C21.5,35,23.1,20.9,26.4,18z M34.7,23.3
		c-0.3,8.2-3.7,19-5.7,19.9c-1,0.5-1.7,0.5-2.3,0.2c3.3-5.4,4.9-20.2,3.2-27.2c0.2,0,0.4-0.1,0.6-0.1c0.9,0,1.9,0.3,2.9,0.8
		C34.1,17.4,34.8,19.2,34.7,23.3z"/>
	<g>
		<g>
			<path class="st1" d="M76.6,35.5L76.6,35.5c-1.2,5.4-4.8,9.6-11.7,9.6c-8.5,0-13-5.8-13-14.9s4.7-14.8,12.6-14.8
				c7.5-0.1,11,4.3,12.1,9.8V6.7h2.5v37.9h-2.5V35.5z M76.6,30.5v-0.4c0-7.5-4.5-12.5-11.5-12.5s-10.8,4.6-10.8,12.7
				c0,8,3.5,12.5,10.8,12.5C72,42.8,76.6,38.4,76.6,30.5z"/>
			<path class="st1" d="M82.9,30.1c0-9.2,5.9-14.7,14.2-14.7c8.2,0,14.2,5.5,14.2,14.7s-5.3,15-14.2,15S82.9,39.4,82.9,30.1z
				 M85.4,30.1c0,7.6,4.1,12.7,11.6,12.7s11.7-5.1,11.7-12.7S104.2,17.8,97,17.8C89.9,17.8,85.4,22.5,85.4,30.1z"/>
			<path class="st1" d="M117.6,44.6h-2.5V6.7h2.5V44.6z"/>
			<path class="st1" d="M126.1,44.6h-2.5V16h2.5v7.5h0.1c1.2-5.2,5.2-8.1,10.5-8.1c7.2,0,10.1,4,10.8,8.8h0.1
				c0.9-5.7,4.3-8.8,10.5-8.8c8.8,0,11.3,5.6,11.3,11.7v17.4h-2.5V27.4c0-4.8-2-9.6-8.8-9.6c-6.4,0-10.3,3.5-10.3,9.6v17.1h-2.5
				V27.4c0-4.8-2-9.6-8.8-9.6c-6.4,0-10.3,3.5-10.3,9.6v17.2H126.1z"/>
			<path class="st1" d="M194.5,37.1L194.5,37.1c-1.4,5.6-5.9,8.1-11,8.1c-6.1,0-9.5-2.7-9.5-7.8c0-4.4,3.3-8,9.6-8h10.9v-2.5
				c0-5.9-2-9.1-8-9.1c-5.4,0-8.2,2.6-9.2,8.7l-2.4-0.5c1.1-7.2,5.4-10.5,11.6-10.5c7.2,0,10.5,4,10.5,11.3v17.8h-2.5V37.1z
				 M194.5,34.3v-2.6h-10.8c-4.7,0-7.2,1.9-7.2,5.8c0,2.6,1.8,5.4,6.9,5.4C190.3,42.8,194.5,39.2,194.5,34.3z"/>
			<path class="st1" d="M214.7,17.8c-7,0-11.8,4.4-11.8,12.6c0,7.6,4.7,12.4,12.1,12.4s9.5-4.1,10.9-9.2l2.4,0.7
				c-1.7,6.9-5.8,10.8-13.3,10.8c-8.9,0-14.6-5.8-14.6-15s6.3-14.7,14.3-14.7c7.6,0,12,4,13.4,10.6l-2.4,0.6
				C224.4,20.9,221.1,17.8,214.7,17.8z"/>
			<path class="st1" d="M234.7,44.6h-2.5V6.7h2.5v16.9h0.1c1.2-5.2,5.2-8.1,10.5-8.1c8.5,0,11,5.6,11,11.7v17.4h-2.5V27.4
				c0-4.8-2-9.6-8.8-9.6c-6.4,0-10.3,3.5-10.3,9.6V44.6z"/>
			<path class="st1" d="M262.3,10.3V6.7h3.7v3.6H262.3z M262.9,44.6V16h2.5v28.5L262.9,44.6L262.9,44.6z"/>
		</g>
	</g>
</g>
</svg>
