<?xml version="1.0" encoding="utf-8"?>
<!-- Generator: Adobe Illustrator 24.2.1, SVG Export Plug-In . SVG Version: 6.00 Build 0)  -->
<svg version="1.1" id="Layer_1" xmlns="http://www.w3.org/2000/svg" xmlns:xlink="http://www.w3.org/1999/xlink" x="0px" y="0px"
	 viewBox="0 0 293 76" style="enable-background:new 0 0 293 76;" xml:space="preserve">
<style type="text/css">
	.st0{fill:#4A8B2C;}
	.st1{fill:#58595B;}
</style>
<g>
	<path class="st0" d="M45.8,27.2c-1.7-0.9-3.4-1.2-5-0.9c-0.8-1.6-4.9-4.1-9.6-4.4c-0.8-0.1-0.9-0.7-0.9-0.9
		c0.1-1.2,1.4-3.7,5.9-2.8l0.7-1.9c-6.3-0.8-8.3,2.2-8.4,4.6c-0.1,1.6,1,2.8,2.6,2.9c4.3,0.3,7.3,2.4,8,3.2
		c-0.8,0.4-1.6,0.9-2.3,1.6c-4.5,3.9-5.2,19.4-2.1,25.1c0.3,0.6,0.7,1.2,1.1,1.8c0,0-0.1,0.1-0.1,0.1c-2.3,1-5.6,0.7-7.9-0.2
		c2.8-5.1,2.9-21.9-1.8-27.3c-0.4-0.5-1-0.8-1.7-1.1c1.4-0.9,5.5-2.3,11,1l0.7-1.7c-6.2-3.4-11.2-2.2-13.3-0.5
		c-0.2,0.2-0.4,0.4-0.6,0.7c-2.6-0.3-5.5,0.1-6.6,0.9c-2.5,1.8-1.4,9.9-0.7,13.3c0.3,1.5,2.8,14.5,7.4,15.7c0.9,0.2,1.7,0.3,2.3,0.3
		c0.6,0,1.1-0.1,1.5-0.2c1.7,1,4,1.5,6.2,1.5c1.5,0,3-0.3,4.2-0.8c0.2-0.1,0.5-0.3,0.7-0.5c0.5,0.3,1.1,0.6,1.9,0.6
		c0.7,0,1.4-0.2,2.3-0.6c3.4-1.5,6.5-14.1,6.8-21.5C48.2,30.8,47.4,28.1,45.8,27.2z M26,54.4c-0.4-0.3-0.7-0.6-0.8-0.9
		c-3.5-6.4-4.9-20-2.4-25.1c0.7,0.2,1.3,0.4,1.6,0.8C28.8,34.3,28.3,50.4,26,54.4z M16.4,40.3c-1.3-7-0.8-10.9,0-11.4
		c0.7-0.5,2.7-0.8,4.5-0.7c-2.7,6.4-0.8,19.8,2.6,26.2c0.1,0.2,0.2,0.3,0.3,0.4c-0.4,0-0.9-0.1-1.4-0.2C20.4,54,17.8,47.8,16.4,40.3
		z M37.9,29.9c0.6-0.5,1.2-0.9,1.8-1.2c1.8,7-0.4,20.5-2.8,25.2c-0.2-0.3-0.4-0.7-0.6-1.1C33,46.9,34.6,32.8,37.9,29.9z M46.2,35.2
		c-0.3,8.2-3.7,19-5.7,19.9c-1,0.5-1.7,0.5-2.3,0.2c3.3-5.4,4.9-20.2,3.2-27.2c0.2,0,0.4-0.1,0.6-0.1c0.9,0,1.9,0.3,2.9,0.8
		C45.6,29.3,46.3,31.1,46.2,35.2z"/>
	<g>
		<g>
			<path class="st1" d="M88.1,47.4L88.1,47.4c-1.2,5.4-4.8,9.6-11.7,9.6c-8.5,0-13-5.8-13-14.9S68.1,27.3,76,27.3
				c7.5-0.1,11,4.3,12.1,9.8V18.6h2.5v37.9h-2.5V47.4z M88.1,42.4V42c0-7.5-4.5-12.5-11.5-12.5s-10.8,4.6-10.8,12.7
				c0,8,3.5,12.5,10.8,12.5C83.5,54.7,88.1,50.3,88.1,42.4z"/>
			<path class="st1" d="M94.4,42c0-9.2,5.9-14.7,14.2-14.7c8.2,0,14.2,5.5,14.2,14.7c0,9.2-5.3,15-14.2,15S94.4,51.3,94.4,42z
				 M96.9,42c0,7.6,4.1,12.7,11.6,12.7c7.5,0,11.7-5.1,11.7-12.7c0-7.6-4.5-12.3-11.7-12.3C101.4,29.7,96.9,34.4,96.9,42z"/>
			<path class="st1" d="M129.1,56.5h-2.5V18.6h2.5V56.5z"/>
			<path class="st1" d="M137.6,56.5h-2.5V27.9h2.5v7.5h0.1c1.2-5.2,5.2-8.1,10.5-8.1c7.2,0,10.1,4,10.8,8.8h0.1
				c0.9-5.7,4.3-8.8,10.5-8.8c8.8,0,11.3,5.6,11.3,11.7v17.4h-2.5V39.3c0-4.8-2-9.6-8.8-9.6c-6.4,0-10.3,3.5-10.3,9.6v17.1h-2.5
				V39.3c0-4.8-2-9.6-8.8-9.6c-6.4,0-10.3,3.5-10.3,9.6V56.5z"/>
			<path class="st1" d="M206,49L206,49c-1.4,5.6-5.9,8.1-11,8.1c-6.1,0-9.5-2.7-9.5-7.8c0-4.4,3.3-8,9.6-8H206v-2.5
				c0-5.9-2-9.1-8-9.1c-5.4,0-8.2,2.6-9.2,8.7l-2.4-0.5c1.1-7.2,5.4-10.5,11.6-10.5c7.2,0,10.5,4,10.5,11.3v17.8H206V49z M206,46.2
				v-2.6h-10.8c-4.7,0-7.2,1.9-7.2,5.8c0,2.6,1.8,5.4,6.9,5.4C201.8,54.7,206,51.1,206,46.2z"/>
			<path class="st1" d="M226.2,29.7c-7,0-11.8,4.4-11.8,12.6c0,7.6,4.7,12.4,12.1,12.4s9.5-4.1,10.9-9.2l2.4,0.7
				c-1.7,6.9-5.8,10.8-13.3,10.8c-8.9,0-14.6-5.8-14.6-15c0-9.2,6.3-14.7,14.3-14.7c7.6,0,12,4,13.4,10.6l-2.4,0.6
				C235.9,32.8,232.6,29.7,226.2,29.7z"/>
			<path class="st1" d="M246.2,56.5h-2.5V18.6h2.5v16.9h0.1c1.2-5.2,5.2-8.1,10.5-8.1c8.5,0,11,5.6,11,11.7v17.4h-2.5V39.3
				c0-4.8-2-9.6-8.8-9.6c-6.4,0-10.3,3.5-10.3,9.6V56.5z"/>
			<path class="st1" d="M273.8,22.2v-3.6h3.7v3.6H273.8z M274.4,56.5V27.9h2.5v28.5H274.4z"/>
		</g>
	</g>
</g>
</svg>
